<mxfile host="app.diagrams.net" modified="2021-08-03T01:35:55.217Z" agent="5.0 (Windows NT 10.0; Win64; x64) AppleWebKit/537.36 (KHTML, like Gecko) Chrome/92.0.4515.107 Safari/537.36" etag="YQ4MNbu1CmleUSswoymI" version="14.9.3" type="github">
  <diagram id="RLi_CHe4BHibLsND1oUs" name="Page-1">
    <mxGraphModel dx="1422" dy="882" grid="1" gridSize="10" guides="1" tooltips="1" connect="1" arrows="1" fold="1" page="1" pageScale="1" pageWidth="827" pageHeight="1169" math="0" shadow="0">
      <root>
        <mxCell id="0" />
        <mxCell id="1" parent="0" />
        <mxCell id="OH2wEWxn76ZFcBjz5NEC-9" style="edgeStyle=none;rounded=0;orthogonalLoop=1;jettySize=auto;html=1;entryX=0;entryY=0.5;entryDx=0;entryDy=0;startArrow=none;startFill=0;endArrow=classic;endFill=1;exitX=1;exitY=0.5;exitDx=0;exitDy=0;" parent="1" source="OH2wEWxn76ZFcBjz5NEC-1" target="OH2wEWxn76ZFcBjz5NEC-8" edge="1">
          <mxGeometry relative="1" as="geometry" />
        </mxCell>
        <mxCell id="OH2wEWxn76ZFcBjz5NEC-10" style="edgeStyle=none;rounded=0;orthogonalLoop=1;jettySize=auto;html=1;startArrow=none;startFill=0;endArrow=classic;endFill=1;exitX=1;exitY=0.5;exitDx=0;exitDy=0;entryX=0;entryY=0.5;entryDx=0;entryDy=0;" parent="1" source="OH2wEWxn76ZFcBjz5NEC-1" target="OH2wEWxn76ZFcBjz5NEC-2" edge="1">
          <mxGeometry relative="1" as="geometry" />
        </mxCell>
        <mxCell id="OH2wEWxn76ZFcBjz5NEC-21" style="edgeStyle=none;rounded=0;orthogonalLoop=1;jettySize=auto;html=1;entryX=0;entryY=0.5;entryDx=0;entryDy=0;startArrow=none;startFill=0;endArrow=classic;endFill=1;exitX=1;exitY=0.5;exitDx=0;exitDy=0;" parent="1" source="OH2wEWxn76ZFcBjz5NEC-1" target="OH2wEWxn76ZFcBjz5NEC-18" edge="1">
          <mxGeometry relative="1" as="geometry" />
        </mxCell>
        <mxCell id="OH2wEWxn76ZFcBjz5NEC-1" value="NewAddPriceGroupAction" style="rounded=1;whiteSpace=wrap;html=1;fillColor=#d5e8d4;strokeColor=#82b366;" parent="1" vertex="1">
          <mxGeometry x="80" y="80" width="160" height="40" as="geometry" />
        </mxCell>
        <mxCell id="OH2wEWxn76ZFcBjz5NEC-2" value="ChangeItemPriceGroupUnitAction" style="rounded=1;whiteSpace=wrap;html=1;fillColor=#e1d5e7;strokeColor=#9673a6;" parent="1" vertex="1">
          <mxGeometry x="560" y="120" width="280" height="40" as="geometry" />
        </mxCell>
        <mxCell id="OH2wEWxn76ZFcBjz5NEC-4" value="PackQuantityUpdateUnitAction" style="rounded=1;whiteSpace=wrap;html=1;fillColor=#e1d5e7;strokeColor=#9673a6;" parent="1" vertex="1">
          <mxGeometry x="560" y="200" width="280" height="40" as="geometry" />
        </mxCell>
        <mxCell id="OH2wEWxn76ZFcBjz5NEC-6" style="rounded=0;orthogonalLoop=1;jettySize=auto;html=1;entryX=1;entryY=0.5;entryDx=0;entryDy=0;exitX=0;exitY=0.5;exitDx=0;exitDy=0;startArrow=none;startFill=0;" parent="1" source="OH2wEWxn76ZFcBjz5NEC-5" target="OH2wEWxn76ZFcBjz5NEC-2" edge="1">
          <mxGeometry relative="1" as="geometry" />
        </mxCell>
        <mxCell id="OH2wEWxn76ZFcBjz5NEC-7" style="edgeStyle=none;rounded=0;orthogonalLoop=1;jettySize=auto;html=1;entryX=1;entryY=0.5;entryDx=0;entryDy=0;exitX=0;exitY=0.5;exitDx=0;exitDy=0;" parent="1" source="OH2wEWxn76ZFcBjz5NEC-5" target="OH2wEWxn76ZFcBjz5NEC-4" edge="1">
          <mxGeometry relative="1" as="geometry" />
        </mxCell>
        <mxCell id="OH2wEWxn76ZFcBjz5NEC-11" style="edgeStyle=none;rounded=0;orthogonalLoop=1;jettySize=auto;html=1;entryX=1;entryY=0.5;entryDx=0;entryDy=0;startArrow=none;startFill=0;endArrow=classic;endFill=1;exitX=0;exitY=0.5;exitDx=0;exitDy=0;" parent="1" source="OH2wEWxn76ZFcBjz5NEC-5" target="OH2wEWxn76ZFcBjz5NEC-8" edge="1">
          <mxGeometry relative="1" as="geometry" />
        </mxCell>
        <mxCell id="OH2wEWxn76ZFcBjz5NEC-19" style="edgeStyle=none;rounded=0;orthogonalLoop=1;jettySize=auto;html=1;entryX=1;entryY=0.5;entryDx=0;entryDy=0;startArrow=none;startFill=0;endArrow=classic;endFill=1;exitX=0;exitY=0.5;exitDx=0;exitDy=0;" parent="1" source="OH2wEWxn76ZFcBjz5NEC-5" target="OH2wEWxn76ZFcBjz5NEC-18" edge="1">
          <mxGeometry relative="1" as="geometry" />
        </mxCell>
        <mxCell id="OH2wEWxn76ZFcBjz5NEC-27" style="edgeStyle=none;rounded=0;orthogonalLoop=1;jettySize=auto;html=1;entryX=1;entryY=0.5;entryDx=0;entryDy=0;startArrow=none;startFill=0;endArrow=classic;endFill=1;exitX=0;exitY=0.5;exitDx=0;exitDy=0;" parent="1" source="OH2wEWxn76ZFcBjz5NEC-5" target="OH2wEWxn76ZFcBjz5NEC-25" edge="1">
          <mxGeometry relative="1" as="geometry" />
        </mxCell>
        <mxCell id="qOiEKvcbZ_uHqy3bc7zJ-2" style="rounded=0;orthogonalLoop=1;jettySize=auto;html=1;entryX=1;entryY=0.5;entryDx=0;entryDy=0;exitX=0;exitY=0.5;exitDx=0;exitDy=0;" edge="1" parent="1" source="OH2wEWxn76ZFcBjz5NEC-5" target="qOiEKvcbZ_uHqy3bc7zJ-1">
          <mxGeometry relative="1" as="geometry" />
        </mxCell>
        <mxCell id="OH2wEWxn76ZFcBjz5NEC-5" value="&amp;lt;&amp;lt;IProposalAutoUpdateUnitActions&amp;gt;&amp;gt;&lt;br&gt;ProposalAutoUpdateUnitActions" style="rounded=1;whiteSpace=wrap;html=1;fillColor=#dae8fc;strokeColor=#6c8ebf;" parent="1" vertex="1">
          <mxGeometry x="960" y="240" width="240" height="40" as="geometry" />
        </mxCell>
        <mxCell id="OH2wEWxn76ZFcBjz5NEC-8" value="NewProposalWithItemUnitAction" style="rounded=1;whiteSpace=wrap;html=1;fillColor=#e1d5e7;strokeColor=#9673a6;" parent="1" vertex="1">
          <mxGeometry x="560" y="40" width="280" height="40" as="geometry" />
        </mxCell>
        <mxCell id="OH2wEWxn76ZFcBjz5NEC-17" style="edgeStyle=none;rounded=0;orthogonalLoop=1;jettySize=auto;html=1;entryX=0;entryY=0.5;entryDx=0;entryDy=0;startArrow=none;startFill=0;endArrow=classic;endFill=1;exitX=1;exitY=0.5;exitDx=0;exitDy=0;" parent="1" source="OH2wEWxn76ZFcBjz5NEC-13" target="OH2wEWxn76ZFcBjz5NEC-2" edge="1">
          <mxGeometry relative="1" as="geometry" />
        </mxCell>
        <mxCell id="OH2wEWxn76ZFcBjz5NEC-22" style="edgeStyle=none;rounded=0;orthogonalLoop=1;jettySize=auto;html=1;entryX=0;entryY=0.5;entryDx=0;entryDy=0;startArrow=none;startFill=0;endArrow=classic;endFill=1;exitX=1;exitY=0.5;exitDx=0;exitDy=0;" parent="1" source="OH2wEWxn76ZFcBjz5NEC-13" target="OH2wEWxn76ZFcBjz5NEC-18" edge="1">
          <mxGeometry relative="1" as="geometry" />
        </mxCell>
        <mxCell id="OH2wEWxn76ZFcBjz5NEC-13" value="UpdatePriceGroupAction" style="rounded=1;whiteSpace=wrap;html=1;fillColor=#d5e8d4;strokeColor=#82b366;" parent="1" vertex="1">
          <mxGeometry x="80" y="160" width="160" height="40" as="geometry" />
        </mxCell>
        <mxCell id="OH2wEWxn76ZFcBjz5NEC-23" style="edgeStyle=none;rounded=0;orthogonalLoop=1;jettySize=auto;html=1;entryX=0;entryY=0.5;entryDx=0;entryDy=0;startArrow=none;startFill=0;endArrow=classic;endFill=1;exitX=1;exitY=0.5;exitDx=0;exitDy=0;" parent="1" source="OH2wEWxn76ZFcBjz5NEC-14" target="OH2wEWxn76ZFcBjz5NEC-18" edge="1">
          <mxGeometry relative="1" as="geometry" />
        </mxCell>
        <mxCell id="OH2wEWxn76ZFcBjz5NEC-28" style="edgeStyle=none;rounded=0;orthogonalLoop=1;jettySize=auto;html=1;entryX=0;entryY=0.5;entryDx=0;entryDy=0;startArrow=none;startFill=0;endArrow=classic;endFill=1;exitX=1;exitY=0.5;exitDx=0;exitDy=0;" parent="1" source="OH2wEWxn76ZFcBjz5NEC-14" target="OH2wEWxn76ZFcBjz5NEC-4" edge="1">
          <mxGeometry relative="1" as="geometry" />
        </mxCell>
        <mxCell id="OH2wEWxn76ZFcBjz5NEC-14" value="UpdatePackQuantityAction" style="rounded=1;whiteSpace=wrap;html=1;fillColor=#d5e8d4;strokeColor=#82b366;" parent="1" vertex="1">
          <mxGeometry x="80" y="400" width="160" height="40" as="geometry" />
        </mxCell>
        <mxCell id="OH2wEWxn76ZFcBjz5NEC-20" style="edgeStyle=none;rounded=0;orthogonalLoop=1;jettySize=auto;html=1;entryX=0;entryY=0.5;entryDx=0;entryDy=0;startArrow=none;startFill=0;endArrow=classic;endFill=1;exitX=1;exitY=0.5;exitDx=0;exitDy=0;" parent="1" source="OH2wEWxn76ZFcBjz5NEC-15" target="OH2wEWxn76ZFcBjz5NEC-18" edge="1">
          <mxGeometry relative="1" as="geometry" />
        </mxCell>
        <mxCell id="OH2wEWxn76ZFcBjz5NEC-15" value="NewAddLocationAction" style="rounded=1;whiteSpace=wrap;html=1;fillColor=#d5e8d4;strokeColor=#82b366;" parent="1" vertex="1">
          <mxGeometry x="80" y="240" width="160" height="40" as="geometry" />
        </mxCell>
        <mxCell id="OH2wEWxn76ZFcBjz5NEC-24" style="edgeStyle=none;rounded=0;orthogonalLoop=1;jettySize=auto;html=1;entryX=0;entryY=0.5;entryDx=0;entryDy=0;startArrow=none;startFill=0;endArrow=classic;endFill=1;exitX=1;exitY=0.5;exitDx=0;exitDy=0;" parent="1" source="OH2wEWxn76ZFcBjz5NEC-16" target="OH2wEWxn76ZFcBjz5NEC-18" edge="1">
          <mxGeometry relative="1" as="geometry" />
        </mxCell>
        <mxCell id="OH2wEWxn76ZFcBjz5NEC-26" style="edgeStyle=none;rounded=0;orthogonalLoop=1;jettySize=auto;html=1;entryX=0;entryY=0.5;entryDx=0;entryDy=0;startArrow=none;startFill=0;endArrow=classic;endFill=1;exitX=1;exitY=0.5;exitDx=0;exitDy=0;" parent="1" source="OH2wEWxn76ZFcBjz5NEC-16" target="OH2wEWxn76ZFcBjz5NEC-25" edge="1">
          <mxGeometry relative="1" as="geometry" />
        </mxCell>
        <mxCell id="qOiEKvcbZ_uHqy3bc7zJ-3" style="edgeStyle=none;rounded=0;orthogonalLoop=1;jettySize=auto;html=1;entryX=0;entryY=0.5;entryDx=0;entryDy=0;exitX=1;exitY=0.5;exitDx=0;exitDy=0;exitPerimeter=0;" edge="1" parent="1" source="OH2wEWxn76ZFcBjz5NEC-16" target="qOiEKvcbZ_uHqy3bc7zJ-1">
          <mxGeometry relative="1" as="geometry" />
        </mxCell>
        <mxCell id="OH2wEWxn76ZFcBjz5NEC-16" value="InactiveItemLocationAction" style="rounded=1;whiteSpace=wrap;html=1;fillColor=#d5e8d4;strokeColor=#82b366;" parent="1" vertex="1">
          <mxGeometry x="80" y="320" width="160" height="40" as="geometry" />
        </mxCell>
        <mxCell id="OH2wEWxn76ZFcBjz5NEC-18" value="CommentUnitAction" style="rounded=1;whiteSpace=wrap;html=1;fillColor=#e1d5e7;strokeColor=#9673a6;" parent="1" vertex="1">
          <mxGeometry x="560" y="280" width="280" height="40" as="geometry" />
        </mxCell>
        <mxCell id="OH2wEWxn76ZFcBjz5NEC-25" value="RemoveItemLocationUnitAction" style="rounded=1;whiteSpace=wrap;html=1;fillColor=#e1d5e7;strokeColor=#9673a6;" parent="1" vertex="1">
          <mxGeometry x="560" y="360" width="280" height="40" as="geometry" />
        </mxCell>
        <mxCell id="qOiEKvcbZ_uHqy3bc7zJ-1" value="RemoveProposalRequestItemLocationUnitAction" style="rounded=1;whiteSpace=wrap;html=1;fillColor=#e1d5e7;strokeColor=#9673a6;" vertex="1" parent="1">
          <mxGeometry x="560" y="440" width="280" height="40" as="geometry" />
        </mxCell>
      </root>
    </mxGraphModel>
  </diagram>
</mxfile>
